<svg width="32" height="47" viewBox="0 0 32 47" fill="none" xmlns="http://www.w3.org/2000/svg">
<g clip-path="url(#clip0_12_214)">
<path d="M8.0016 47C12.4167 47 16 43.4906 16 39.1666V31.3333H8.0016C3.58649 31.3333 0.00320435 34.8426 0.00320435 39.1666C0.00320435 43.4906 3.58649 47 8.0016 47Z" fill="#0ACF83"/>
<path d="M0.00320435 23.5C0.00320435 19.176 3.58649 15.6667 8.0016 15.6667H16V31.3334H8.0016C3.58649 31.3334 0.00320435 27.824 0.00320435 23.5Z" fill="#A259FF"/>
<path d="M0.00338745 7.83333C0.00338745 3.50933 3.58667 0 8.00179 0H16.0002V15.6667H8.00179C3.58667 15.6667 0.00338745 12.1573 0.00338745 7.83333Z" fill="#F24E1E"/>
<path d="M16 0H23.9984C28.4135 0 31.9968 3.50933 31.9968 7.83333C31.9968 12.1573 28.4135 15.6667 23.9984 15.6667H16V0Z" fill="#FF7262"/>
<path d="M31.9968 23.5C31.9968 27.824 28.4135 31.3334 23.9984 31.3334C19.5833 31.3334 16 27.824 16 23.5C16 19.176 19.5833 15.6667 23.9984 15.6667C28.4135 15.6667 31.9968 19.176 31.9968 23.5Z" fill="#1ABCFE"/>
</g>
<defs>
<clipPath id="clip0_12_214">
<rect width="32" height="47" fill="white"/>
</clipPath>
</defs>
</svg>
