<svg width="95" height="47" viewBox="0 0 95 47" fill="none" xmlns="http://www.w3.org/2000/svg">
<path d="M7.16737 16.7949C7.03705 16.7949 6.90674 16.666 7.03706 16.537L7.94926 15.2476C8.07958 15.1187 8.20989 14.9897 8.47052 14.9897H24.8903C25.0206 14.9897 25.1509 15.1187 25.0206 15.2476L24.2387 16.4081C24.1084 16.537 23.9781 16.666 23.7174 16.666L7.16737 16.7949ZM0.260649 20.9211C0.130334 20.9211 1.78292e-05 20.7922 0.130333 20.6632L1.04254 19.3738C1.17286 19.2449 1.30317 19.1159 1.5638 19.1159H22.5446C22.6749 19.1159 22.8052 19.2449 22.8052 19.3738L22.4143 20.6632C22.4143 20.7922 22.1537 20.9211 22.0233 20.9211H0.260649ZM11.3375 25.1763C11.2072 25.1763 11.0768 25.0473 11.2071 24.9184L11.8587 23.7579C11.989 23.6289 12.1194 23.5 12.38 23.5H21.5021C21.6324 23.5 21.7627 23.6289 21.7627 23.7579L21.6324 24.7894C21.6324 24.9184 21.5021 25.0473 21.3718 25.0473L11.3375 25.1763ZM59.0329 15.8923L51.3443 17.8265C50.6927 17.9554 50.5624 18.0844 50.0412 17.3107C49.3896 16.537 48.8683 16.0213 47.8258 15.6344C44.9589 14.216 42.0919 14.6029 39.4856 16.2791C36.358 18.2133 34.7943 21.179 34.7943 24.9184C34.7943 28.5288 37.4006 31.4945 41.0494 32.0103C44.177 32.3971 46.7833 31.3656 48.8683 29.0446C49.2593 28.5288 49.6502 28.013 50.1715 27.3683H41.31C40.3978 27.3683 40.1372 26.7236 40.3978 25.9499C41.0494 24.5315 42.0919 22.2106 42.7435 21.0501C42.8738 20.7922 43.2648 20.2764 43.9163 20.2764H60.5967C60.4664 21.5658 60.4664 22.7263 60.3361 24.0158C59.8148 27.2394 58.642 30.334 56.5569 32.9129C53.2991 37.168 48.9986 39.8759 43.5254 40.6495C38.9644 41.2942 34.7943 40.3916 31.1454 37.6838C27.7572 35.1049 25.8025 31.7524 25.2812 27.6262C24.6296 22.7263 26.1934 18.2133 29.1907 14.345C32.4486 10.0898 36.749 7.38203 42.0919 6.47942C46.3923 5.70576 50.5624 6.22153 54.2113 8.67146C56.6873 10.2188 58.3814 12.4108 59.5542 15.1187C59.6845 15.6344 59.5542 15.7634 59.0329 15.8923Z" fill="#00ACD7"/>
<path d="M74.1495 41.0363C69.9794 40.9074 66.2003 39.7469 62.9424 37.0391C60.2058 34.7181 58.5117 31.7524 57.9904 28.2709C57.2085 23.1131 58.642 18.6001 61.7696 14.6029C65.1578 10.2188 69.1975 8.02673 74.6708 6.99518C79.3622 6.22152 83.7929 6.60835 87.7023 9.31617C91.3512 11.7661 93.5665 15.1186 94.2181 19.5027C95 25.692 93.1756 30.5919 89.0055 34.847C86.0082 37.9417 82.2291 39.7469 78.059 40.6495C76.6255 40.9074 75.3224 40.9074 74.1495 41.0363ZM85.096 22.7263C85.096 22.0816 85.096 21.6948 84.9657 21.179C84.1838 16.666 80.0137 14.0871 75.583 15.1186C71.2826 16.0212 68.546 18.7291 67.5034 22.9842C66.7216 26.4657 68.4157 30.0761 71.6735 31.6234C74.1495 32.655 76.7558 32.526 79.1015 31.3656C82.8807 29.5603 84.8354 26.5946 85.096 22.7263Z" fill="#00ACD7"/>
</svg>
