<svg width="47" height="47" viewBox="0 0 47 47" fill="none" xmlns="http://www.w3.org/2000/svg">
<g clip-path="url(#clip0_12_202)">
<path d="M21.9626 0.036684C21.8616 0.0458628 21.5404 0.0779886 21.2512 0.100936C14.5828 0.702146 8.33666 4.30023 4.3806 9.83045C2.1777 12.9053 0.768751 16.3933 0.236381 20.0878C0.0482155 21.3774 0.0252686 21.7583 0.0252686 23.5069C0.0252686 25.2554 0.0482155 25.6363 0.236381 26.926C1.51223 35.7422 7.78594 43.1495 16.2947 45.8939C17.8184 46.385 19.4246 46.72 21.2512 46.922C21.9626 47 25.0375 47 25.7488 46.922C28.9017 46.5732 31.5728 45.793 34.2071 44.4483C34.611 44.2417 34.689 44.1867 34.6339 44.1408C34.5972 44.1132 32.8762 41.8048 30.8109 39.0144L27.0568 33.9431L22.3527 26.981C19.7643 23.1535 17.6348 20.0235 17.6164 20.0235C17.5981 20.0189 17.5797 23.1122 17.5705 26.8892C17.5568 33.5026 17.5522 33.7687 17.4696 33.9248C17.3502 34.1497 17.2584 34.2414 17.0657 34.3424C16.9188 34.4158 16.7903 34.4296 16.0973 34.4296H15.3034L15.0923 34.2965C14.9546 34.2093 14.8536 34.0946 14.7848 33.9615L14.6884 33.755L14.6976 24.5532L14.7113 15.3469L14.8536 15.1679C14.927 15.0715 15.0831 14.9476 15.1932 14.888C15.3814 14.7962 15.4548 14.787 16.2488 14.787C17.185 14.787 17.3411 14.8237 17.5843 15.0899C17.6531 15.1633 20.2003 19.0001 23.2476 23.6216C26.295 28.2431 30.4621 34.5535 32.509 37.6514L36.2264 43.2826L36.4146 43.1586C38.0805 42.0756 39.8429 40.5335 41.238 38.9272C44.2074 35.5173 46.1212 31.3593 46.7637 26.926C46.9518 25.6363 46.9748 25.2554 46.9748 23.5069C46.9748 21.7583 46.9518 21.3774 46.7637 20.0878C45.4878 11.2715 39.2141 3.86424 30.7054 1.11978C29.2046 0.633305 27.6075 0.29828 25.8177 0.0963461C25.3771 0.0504522 22.3435 -3.11732e-05 21.9626 0.036684ZM31.5728 14.2363C31.7931 14.3464 31.972 14.5575 32.0363 14.7778C32.073 14.8971 32.0822 17.4489 32.073 23.1994L32.0592 31.4511L30.6044 29.2207L29.145 26.9902V20.9919C29.145 17.1138 29.1633 14.9339 29.1909 14.8283C29.2643 14.5713 29.4249 14.3694 29.6452 14.25C29.8334 14.1537 29.9022 14.1445 30.6228 14.1445C31.302 14.1445 31.4213 14.1537 31.5728 14.2363Z" fill="black"/>
<path d="M35.9969 43.3835C35.8363 43.4845 35.7858 43.5534 35.9281 43.4753C36.029 43.4157 36.1943 43.2918 36.1667 43.2872C36.153 43.2872 36.0749 43.3331 35.9969 43.3835ZM35.6802 43.5901C35.5976 43.6543 35.5976 43.6589 35.6986 43.6084C35.7537 43.5809 35.7996 43.5488 35.7996 43.5396C35.7996 43.5029 35.7766 43.512 35.6802 43.5901ZM35.4508 43.7278C35.3682 43.792 35.3682 43.7966 35.4691 43.7461C35.5242 43.7186 35.5701 43.6864 35.5701 43.6773C35.5701 43.6406 35.5472 43.6497 35.4508 43.7278ZM35.2213 43.8654C35.1387 43.9297 35.1387 43.9343 35.2397 43.8838C35.2947 43.8563 35.3406 43.8241 35.3406 43.815C35.3406 43.7782 35.3177 43.7874 35.2213 43.8654ZM34.8725 44.049C34.6981 44.1408 34.7073 44.1775 34.8817 44.0903C34.9597 44.049 35.0194 44.0077 35.0194 43.9985C35.0194 43.9664 35.0148 43.971 34.8725 44.049Z" fill="black"/>
</g>
<defs>
<clipPath id="clip0_12_202">
<rect width="47" height="47" fill="white"/>
</clipPath>
</defs>
</svg>
