<svg width="48" height="47" viewBox="0 0 48 47" fill="none" xmlns="http://www.w3.org/2000/svg">
<g clip-path="url(#clip0_12_205)">
<path d="M14.5914 39.7675C14.5557 39.7058 14.5239 39.642 14.4962 39.5765C14.3044 39.142 14.2453 38.6623 14.3262 38.1956H2.97864L19.8425 9.13689L25.3789 18.6664L26.9842 15.885L22.1582 7.56003C21.9268 7.13361 21.59 6.77078 21.1785 6.50473C20.767 6.23869 20.2939 6.07791 19.8026 6.03711C19.3124 6.05909 18.8383 6.2153 18.4343 6.488C18.0302 6.76069 17.7124 7.13892 17.517 7.57968L0.433058 36.9909C0.17765 37.4062 0.0303854 37.8766 0.00422197 38.3607C-0.0219414 38.8448 0.0737977 39.3278 0.283016 39.7671C0.545811 40.1728 0.919282 40.4983 1.36119 40.7069C1.8031 40.9156 2.2958 40.999 2.78359 40.9477H17.0919C16.6041 40.9998 16.1111 40.9168 15.6691 40.7082C15.227 40.4995 14.8536 40.1736 14.5914 39.7675Z" fill="#00C492"/>
<path d="M47.489 36.9909L33.4508 12.7753C33.2206 12.3444 32.8832 11.9771 32.4697 11.7075C32.0563 11.438 31.5801 11.2747 31.0852 11.2328C30.5954 11.2535 30.1213 11.4087 29.7172 11.6806C29.313 11.9524 28.9951 12.3301 28.7997 12.7705L26.9843 15.885L28.5996 18.6664L31.0998 14.3326L44.9885 38.1956H39.7072C39.7748 38.5901 39.7369 38.995 39.5972 39.3708C39.5678 39.4538 39.531 39.5341 39.4871 39.6108L39.4421 39.6989C39.1552 40.0957 38.7728 40.4172 38.3288 40.6349C37.8848 40.8526 37.3929 40.9599 36.8966 40.9473H45.1585C45.6549 40.9604 46.147 40.8533 46.5911 40.6355C47.0351 40.4178 47.4174 40.0961 47.7041 39.6989C47.9303 39.273 48.0301 38.7935 47.9921 38.3148C47.9541 37.8361 47.7798 37.3775 47.489 36.9909Z" fill="#008776"/>
<path d="M39.4421 39.699L39.4871 39.6108C39.531 39.5342 39.5678 39.4539 39.5972 39.3708C39.7369 38.995 39.7748 38.5901 39.7072 38.1956C39.6294 37.7701 39.4735 37.362 39.2471 36.9909L28.61 18.6665L26.9846 15.885L25.3693 18.6665L14.7367 36.9914C14.5304 37.3669 14.3916 37.7744 14.3267 38.1961C14.2411 38.6614 14.295 39.141 14.4818 39.577C14.5094 39.6425 14.5412 39.7063 14.5769 39.768C14.8398 40.1736 15.2133 40.499 15.6552 40.7076C16.0971 40.9161 16.5898 40.9995 17.0776 40.9482H36.8816C37.3805 40.9625 37.8752 40.856 38.3219 40.6381C38.7686 40.4201 39.1534 40.0975 39.4421 39.699ZM26.9843 21.4479L36.7066 38.1956H17.267L26.9843 21.4479Z" fill="#2D4A5D"/>
</g>
<defs>
<clipPath id="clip0_12_205">
<rect width="48" height="47" fill="white"/>
</clipPath>
</defs>
</svg>
